<svg width="192" height="34" viewBox="0 0 192 34" fill="none" xmlns="http://www.w3.org/2000/svg">
<path fill-rule="evenodd" clip-rule="evenodd" d="M184.743 18.0432L187.456 24.6903L190.155 18.0432C190.27 17.769 190.333 17.5225 190.333 17.2934C190.333 16.7971 189.866 16.5471 188.938 16.5471V16.3146H192V16.5506C191.33 16.568 190.797 17.0956 190.403 18.1438L187.616 25.0443L186.302 28.3315L184.97 31.622C184.419 32.764 183.749 33.3402 182.95 33.3402C182.434 33.3402 181.995 33.1563 181.629 32.7953C181.263 32.4273 181.074 31.99 181.074 31.4797C181.074 30.966 181.256 30.5287 181.615 30.1607C181.974 29.7997 182.41 29.6158 182.926 29.6158C183.404 29.6158 183.836 29.7789 184.22 30.1052C184.548 30.3829 184.795 30.5252 184.966 30.5252C185.081 30.5252 185.161 30.4592 185.203 30.3377L185.963 28.453H185.489C185.144 28.453 184.931 28.3662 184.844 28.1961C184.83 28.1649 184.631 27.6754 184.258 26.7348L180.823 18.1369C180.516 17.3837 180.237 16.9255 179.979 16.7658C179.756 16.627 179.383 16.5541 178.849 16.5541V16.3146H183.303C183.84 16.3146 184.314 16.8908 184.743 18.0432ZM178.846 18.5326C178.846 19.029 178.665 19.4663 178.305 19.8377C177.95 20.2126 177.507 20.4 176.973 20.4C176.475 20.4 176.039 20.2195 175.662 19.862C175.292 19.5045 175.101 19.0637 175.101 18.5326C175.101 18.5326 175.135 18.2237 175.191 17.5989C175.191 16.9775 174.898 16.6686 174.305 16.6686C173.245 16.6686 172.262 17.1823 171.359 18.2063V26.5751C171.359 27.6615 171.983 28.21 173.228 28.21V28.446H165.741V28.21C166.989 28.21 167.613 27.6615 167.613 26.5751V18.1855C167.613 17.0956 166.989 16.5541 165.741 16.5541V16.3076H170.421C170.564 16.3076 170.7 16.4361 170.839 16.686C171.01 16.9533 171.136 17.1962 171.216 17.4357L171.355 17.8384C171.965 17.2726 172.51 16.8734 172.994 16.6409C173.618 16.3423 174.49 16.1931 175.617 16.1931C176.457 16.1931 177.207 16.3979 177.859 16.804C178.522 17.2066 178.846 17.7863 178.846 18.5326ZM158.71 28.564C156.607 28.564 154.982 28.026 153.842 26.95C152.719 25.8809 152.161 24.3501 152.161 22.3751C152.161 20.4139 152.73 18.8901 153.866 17.8037C155.007 16.7311 156.618 16.1896 158.71 16.1896C160.799 16.1896 162.414 16.7276 163.554 17.8037C164.691 18.8901 165.259 20.4174 165.259 22.3751H155.903C155.903 25.1242 156.06 26.7244 156.367 27.1548C156.946 27.9323 157.727 28.3245 158.707 28.3245C159.879 28.3245 160.974 28.0364 162.006 27.4602C163.035 26.8875 163.854 26.1308 164.461 25.2005L164.649 25.3151C164.025 26.3009 163.181 27.0819 162.121 27.6754C161.064 28.269 159.924 28.564 158.71 28.564ZM155.903 22.139H161.518C161.518 19.7787 161.402 18.3486 161.165 17.8523C160.729 16.9047 159.91 16.4326 158.71 16.4326C157.525 16.4326 156.764 16.8283 156.419 17.6197C156.07 18.4423 155.903 19.9488 155.903 22.139ZM149.797 13.5412V26.5751C149.797 27.6615 150.421 28.21 151.669 28.21V28.446H144.182V28.21C145.431 28.21 146.058 27.6615 146.058 26.5751V13.5412C146.058 12.4547 145.434 11.9098 144.182 11.9098V11.6703H148.862C149.486 11.6703 149.797 12.2951 149.797 13.5412ZM141.595 13.5412V26.5751C141.595 27.6615 142.219 28.21 143.467 28.21V28.446H135.98V28.21C137.229 28.21 137.853 27.6615 137.853 26.5751V13.5412C137.853 12.4547 137.229 11.9098 135.98 11.9098V11.6703H140.66C141.281 11.6703 141.595 12.2951 141.595 13.5412ZM129.665 20.8825C128.775 20.4799 127.841 20.2751 126.857 20.2751C125.7 20.2751 124.897 20.709 124.427 21.5802C124.176 22.0037 124.05 22.8853 124.05 24.2391C124.05 25.8878 124.256 26.9639 124.657 27.4602C125.142 28.0364 125.874 28.3245 126.857 28.3245C128.043 28.3245 128.995 28.0295 129.713 27.4359C129.682 26.4675 129.665 25.5477 129.665 24.6556V20.8825ZM135.283 28.446H130.599C130.442 28.446 130.271 28.3211 130.083 28.0711C129.898 27.8212 129.787 27.6928 129.755 27.6928C128.964 28.2725 127.994 28.564 126.854 28.564C124.873 28.564 123.286 28.1232 122.097 27.2346C120.901 26.346 120.305 25.3498 120.305 24.246C120.305 23.1387 120.901 22.1599 122.087 21.3129C123.269 20.466 124.863 20.039 126.857 20.039C127.827 20.039 128.761 20.2334 129.665 20.6291V20.0425C129.665 17.6336 128.653 16.4326 126.624 16.4326C125.326 16.4326 124.088 16.7693 122.899 17.4323L122.76 17.224C124.008 16.5367 125.299 16.1931 126.624 16.1931C131.147 16.1931 133.406 18.2549 133.406 22.3751V26.5751C133.406 27.6615 134.031 28.21 135.283 28.21V28.446ZM75.6569 18.182V26.5716C75.6569 27.6581 76.2811 28.2065 77.5295 28.2065V28.4425H70.0423V28.2065C71.2908 28.2065 71.9115 27.6581 71.9115 26.5716V18.182C71.9115 17.0956 71.2873 16.5506 70.0423 16.5506V16.3146H74.7223C74.8618 16.3146 75.0292 16.4326 75.2244 16.6756C75.4162 16.9185 75.5313 17.04 75.5627 17.04C76.4031 16.4777 77.2157 16.1931 77.9933 16.1931C80.4414 16.1931 82.1572 16.7242 83.1406 17.7863C83.4231 17.4913 83.7021 17.2414 83.9845 17.0366C84.8319 16.4777 85.6445 16.1931 86.4256 16.1931C90.4883 16.1931 92.5214 17.6336 92.5214 20.5181V26.5751C92.5214 27.6615 93.1456 28.21 94.3941 28.21V28.446H86.9104V28.21C88.1553 28.21 88.7796 27.6615 88.7796 26.5751V20.7471C88.7796 17.8696 87.9949 16.4326 86.4291 16.4326C85.6131 16.4326 84.818 16.7207 84.0333 17.2969C83.723 17.5329 83.4754 17.762 83.3045 17.998C83.8171 18.6506 84.0752 19.4906 84.0752 20.5181V26.5751C84.0752 27.6615 84.6994 28.21 85.9444 28.21V28.446H78.4641V28.21C79.7126 28.21 80.3368 27.6615 80.3368 26.5751V20.7471C80.3368 17.8696 79.5557 16.4326 77.9968 16.4326C77.1843 16.4326 76.3892 16.7207 75.6115 17.2969C75.6429 17.578 75.6569 17.8731 75.6569 18.182ZM67.2176 18.182C67.2176 16.9359 66.9038 16.3111 66.283 16.3111H61.5961V16.5471C62.848 16.5471 63.4757 17.0921 63.4757 18.1785V26.5682C63.4757 26.8806 63.4932 27.1756 63.5246 27.4567C62.7399 28.0329 61.9413 28.3211 61.1253 28.3211C59.556 28.3211 58.7749 27.5053 58.7749 25.867V18.182C58.7749 16.9359 58.461 16.3111 57.8368 16.3111H53.1533V16.5471C54.4053 16.5471 55.0295 17.0921 55.0295 18.1785V24.2391C55.0295 27.1235 57.0591 28.5606 61.1253 28.5606C61.9099 28.5606 62.7225 28.2794 63.5699 27.7136C63.6013 27.7136 63.7164 27.8316 63.9082 28.0746C64.1035 28.3176 64.2743 28.4391 64.4103 28.4391H69.0938V28.203C67.8453 28.203 67.2176 27.6546 67.2176 26.5682V18.182ZM46.3706 16.3146C46.4403 12.5866 48.2328 10.7227 51.7549 10.7227C52.9894 10.7227 53.809 11.1739 54.2135 12.0764L54.0077 12.1701C53.6311 11.3613 52.8779 10.9587 51.7549 10.9587C50.6634 10.9587 50.1159 11.7501 50.1159 13.3329V16.3111H52.2257V16.5471H50.1159V26.5716C50.1159 27.6581 50.7401 28.2065 51.9886 28.2065V28.4425H44.4979V28.2065C45.7463 28.2065 46.3706 27.6581 46.3706 26.5716V16.5506H44.4979V16.3146H46.3706ZM43.776 18.5326C43.776 19.029 43.5982 19.4663 43.2355 19.8377C42.8798 20.2126 42.4369 20.4 41.9033 20.4C41.4012 20.4 40.9687 20.2195 40.5921 19.862C40.2225 19.5045 40.0341 19.0637 40.0341 18.5326C40.0341 18.5326 40.0655 18.2237 40.1248 17.5989C40.1248 16.9775 39.8284 16.6686 39.2356 16.6686C38.1754 16.6686 37.192 17.1823 36.2888 18.2063V26.5751C36.2888 27.6615 36.913 28.21 38.1615 28.21V28.446H30.6742V28.21C31.9227 28.21 32.5469 27.6615 32.5469 26.5751V18.1855C32.5469 17.0956 31.9227 16.5541 30.6742 16.5541V16.3076H35.3542C35.4972 16.3076 35.6332 16.4361 35.7762 16.686C35.947 16.9533 36.0726 17.1962 36.1528 17.4357L36.2923 17.8384C36.8991 17.2726 37.4501 16.8734 37.9313 16.6409C38.5555 16.3423 39.4274 16.1931 40.5503 16.1931C41.3907 16.1931 42.144 16.3979 42.7926 16.804C43.4482 17.2066 43.776 17.7863 43.776 18.5326ZM24.1181 20.8825V24.6591C24.1181 25.5477 24.1356 26.471 24.167 27.4394C23.4451 28.0329 22.4965 28.328 21.3109 28.328C20.3274 28.328 19.5986 28.0399 19.1104 27.4637C18.7059 26.9673 18.5036 25.8913 18.5036 24.2425C18.5036 22.8888 18.6291 22.0037 18.8802 21.5837C19.3475 20.7124 20.1566 20.2785 21.3109 20.2785C22.2943 20.2751 23.2324 20.4799 24.1181 20.8825ZM29.7397 28.446V28.21C28.4877 28.21 27.8635 27.6615 27.8635 26.5751V22.3751C27.8635 18.2549 25.6037 16.1931 21.0807 16.1931C19.752 16.1931 18.4652 16.5367 17.2168 17.224L17.3563 17.4323C18.5454 16.7658 19.7834 16.4326 21.0807 16.4326C23.1068 16.4326 24.1181 17.6336 24.1181 20.0425V20.6291C23.2149 20.2334 22.2803 20.039 21.3109 20.039C19.3161 20.039 17.7224 20.466 16.5402 21.3129C15.3511 22.1599 14.7617 23.1387 14.7617 24.246C14.7617 25.3498 15.358 26.346 16.5507 27.2346C17.7434 28.1232 19.3301 28.564 21.3109 28.564C22.4512 28.564 23.4207 28.2725 24.2088 27.6928C24.2437 27.6928 24.3553 27.8212 24.5401 28.0711C24.7249 28.3211 24.8993 28.446 25.0562 28.446H29.7397ZM5.61454 12.8261V23.5483H7.95452C9.30759 23.5483 10.2003 23.1318 10.6223 22.2918C11.0268 21.5143 11.2326 20.1432 11.2326 18.1855C11.2326 16.2278 11.0303 14.8567 10.6223 14.0827C10.2038 13.2427 9.31108 12.8261 7.95452 12.8261H5.61454ZM0 12.5866H7.95452C9.99807 12.5866 11.679 13.1281 13.0006 14.2076C14.3153 15.2871 14.9744 16.6131 14.9744 18.1855C14.9744 19.7544 14.3119 21.0769 13.0006 22.1633C11.679 23.2463 10.0016 23.7878 7.95452 23.7878H5.61454V26.5786C5.61454 27.665 6.23877 28.2065 7.48373 28.2065V28.4425H0V28.2065C1.24845 28.2065 1.87268 27.6581 1.87268 26.5716V14.2458C1.82386 13.2982 1.19963 12.8261 0 12.8261V12.5866Z" fill="#181818"/>
<path fill-rule="evenodd" clip-rule="evenodd" d="M114.906 27.7553C114.125 28.2725 113.344 28.5328 112.566 28.5328C110.711 28.5328 109.226 27.9844 108.124 26.8979C107.032 25.808 106.485 24.2981 106.485 22.3681C106.485 20.4382 107.039 18.9283 108.145 17.8384C109.253 16.7346 110.729 16.1827 112.566 16.1827C113.348 16.1827 114.16 16.4673 115.001 17.0331C115.032 17.0331 115.144 16.9151 115.328 16.6825C115.531 16.4326 115.705 16.3042 115.844 16.3042H120.528V16.5402C119.276 16.5402 118.652 17.0886 118.652 18.1751V26.9153C118.652 28.873 118.052 30.3898 116.852 31.4589C115.649 32.5454 113.989 33.0938 111.869 33.0938C110.54 33.0938 109.253 32.7536 108.005 32.0629L108.145 31.8546C109.334 32.5176 110.575 32.8543 111.865 32.8543C112.985 32.8543 113.766 32.5592 114.205 31.9692C114.641 31.3964 114.875 30.4835 114.906 29.2478V27.7553ZM110.226 22.3681C110.226 24.9367 110.321 26.464 110.509 26.9639C110.868 27.849 111.555 28.2933 112.566 28.2933C113.365 28.2933 114.143 28.0121 114.906 27.4533V18.1751C114.906 17.8627 114.92 17.5676 114.955 17.2865C114.178 16.7103 113.379 16.4222 112.566 16.4222C111.569 16.4222 110.882 16.863 110.509 17.7516C110.321 18.1855 110.226 19.7266 110.226 22.3681Z" fill="#181818"/>
<path fill-rule="evenodd" clip-rule="evenodd" d="M120.603 5.98133C118.022 5.98133 115.927 8.06398 115.927 10.6361C115.927 10.9901 115.968 11.3372 116.042 11.667H117.126C117.029 11.3407 116.976 10.9936 116.976 10.6361C116.976 8.82068 118.326 7.3177 120.08 7.06778V10.5632H120.962V7.04348C122.793 7.22398 124.226 8.76167 124.226 10.6326C124.226 10.9901 124.174 11.3372 124.076 11.6635H125.161C125.238 11.3337 125.276 10.9866 125.276 10.6326C125.276 8.06398 123.184 5.98133 120.603 5.98133Z" fill="#F8D671"/>
<path fill-rule="evenodd" clip-rule="evenodd" d="M121.363 7.60233V8.48745L121.328 10.7992C121.224 11.1532 120.903 11.4101 120.519 11.4101C120.136 11.4101 119.815 11.1532 119.71 10.7992L119.675 8.5534V7.64745C118.396 8.04315 117.468 9.23026 117.468 10.6326C117.468 11.1949 117.618 11.719 117.876 12.1772H118.926C118.549 11.7711 118.319 11.2296 118.319 10.6326C118.319 9.94531 118.626 9.33093 119.107 8.9144L119.128 10.8027C119.243 11.4761 119.822 11.9863 120.516 11.9863C121.213 11.9863 121.792 11.4761 121.904 10.8027L121.925 8.78249C122.504 9.19555 122.884 9.86894 122.884 10.6326C122.884 11.2296 122.654 11.7711 122.277 12.1772H123.327C123.585 11.7225 123.735 11.1949 123.735 10.6326C123.742 9.17126 122.727 7.94249 121.363 7.60233Z" fill="#F8D671"/>
<path fill-rule="evenodd" clip-rule="evenodd" d="M84.1294 10.2889C83.418 10.2889 82.8391 9.71275 82.8391 9.00464C82.8391 8.29654 83.418 7.72034 84.1294 7.72034C84.8408 7.72034 85.4197 8.29654 85.4197 9.00464C85.4197 9.71275 84.8408 10.2889 84.1294 10.2889ZM84.1294 6.09588C83.6656 6.09588 83.2262 6.20348 82.8391 6.39786V0.660156H81.207V9.00464C81.207 10.6083 82.5183 11.9134 84.1294 11.9134C85.7405 11.9134 87.0517 10.6083 87.0517 9.00464C87.0517 7.401 85.7405 6.09588 84.1294 6.09588Z" fill="#F8D671"/>
<path fill-rule="evenodd" clip-rule="evenodd" d="M95.2887 9.00464C95.2887 8.29654 95.8676 7.72034 96.579 7.72034C97.2904 7.72034 97.8693 8.29654 97.8693 9.00464C97.8693 9.71275 97.2904 10.2889 96.579 10.2889C95.8676 10.2889 95.2887 9.71275 95.2887 9.00464ZM89.1162 9.00464C89.1162 8.29654 89.6951 7.72034 90.4065 7.72034C90.7587 7.72034 91.0796 7.86266 91.3097 8.09175L89.4859 9.90365C89.2592 9.67109 89.1162 9.35522 89.1162 9.00464ZM98.8946 10.7784C99.2747 10.2855 99.5049 9.67109 99.5049 9.00117C99.5049 7.39753 98.1937 6.0924 96.5825 6.0924C94.9714 6.0924 93.6602 7.39753 93.6602 9.00117C93.6602 9.5496 93.8136 10.0599 94.0786 10.4972H90.811L93.1929 8.12646V8.12299C92.8162 6.94629 91.7108 6.0924 90.4065 6.0924C88.7954 6.0924 87.4842 7.39753 87.4842 9.00117C87.4842 10.584 88.757 11.8718 90.3403 11.9099H96.9138C98.361 11.9099 99.5363 13.0797 99.5363 14.5202C99.5363 15.9607 98.361 17.1305 96.9138 17.1305V18.7549C99.2608 18.7549 101.168 16.8562 101.168 14.5202C101.165 12.9027 100.244 11.4899 98.8946 10.7784Z" fill="#F8D671"/>
<path fill-rule="evenodd" clip-rule="evenodd" d="M107.163 9.60514V6.43604H105.618L102.567 9.60514V6.43604H99.6479V7.96679H101.032V11.9134H102.549L105.629 8.71307V11.9134H107.146L110.225 8.71307V11.9134H111.759V6.43604H110.214L107.163 9.60514Z" fill="#F8D671"/>
<path d="M102.57 0.660156H100.977V2.24644H102.57V0.660156Z" fill="#F8D671"/>
</svg>
