<svg width="340" height="287" viewBox="0 0 340 287" fill="none" xmlns="http://www.w3.org/2000/svg">
<path fill-rule="evenodd" clip-rule="evenodd" d="M306 25H34C29.0294 25 25 29.0294 25 34V253C25 257.971 29.0294 262 34 262H306C310.971 262 315 257.971 315 253V34C315 29.0294 310.971 25 306 25ZM34 0C15.2223 0 0 15.2223 0 34V253C0 271.778 15.2223 287 34 287H306C324.778 287 340 271.778 340 253V34C340 15.2223 324.778 0 306 0H34Z" fill="#191919"/>
<path fill-rule="evenodd" clip-rule="evenodd" d="M99 69.5C105.904 69.5 111.5 75.0964 111.5 82C111.5 89.6823 113.013 97.2894 115.953 104.387C118.893 111.485 123.202 117.934 128.634 123.366C134.066 128.798 140.515 133.107 147.613 136.047C154.711 138.987 162.318 140.5 170 140.5C177.682 140.5 185.289 138.987 192.387 136.047C199.485 133.107 205.934 128.798 211.366 123.366C216.798 117.934 221.107 111.485 224.047 104.387C226.987 97.2894 228.5 89.6823 228.5 82C228.5 75.0965 234.096 69.5 241 69.5C247.904 69.5 253.5 75.0965 253.5 82C253.5 92.9654 251.34 103.823 247.144 113.954C242.948 124.085 236.797 133.29 229.043 141.043C221.29 148.797 212.085 154.948 201.954 159.144C191.823 163.34 180.965 165.5 170 165.5C159.035 165.5 148.177 163.34 138.046 159.144C127.915 154.948 118.71 148.797 110.957 141.043C103.203 133.29 97.0523 124.085 92.8561 113.954C88.6598 103.823 86.5 92.9654 86.5 82C86.5 75.0964 92.0964 69.5 99 69.5Z" fill="#191919"/>
</svg>
