<svg width="553" height="227" viewBox="0 0 553 227" fill="none" xmlns="http://www.w3.org/2000/svg">
<path fill-rule="evenodd" clip-rule="evenodd" d="M494.361 66.7545C461.978 66.7545 435.678 92.8814 435.678 125.148C435.678 129.59 436.203 133.944 437.122 138.081H450.732C449.507 133.988 448.85 129.633 448.85 125.148C448.85 102.374 465.785 83.5193 487.797 80.384V124.234H498.868V80.0792C521.843 82.3436 539.828 101.634 539.828 125.105C539.828 129.59 539.172 133.944 537.946 138.038H551.556C552.519 133.901 553 129.546 553 125.105C553 92.8814 526.744 66.7545 494.361 66.7545Z" fill="#D2AD52"/>
<path fill-rule="evenodd" clip-rule="evenodd" d="M503.901 87.09V98.1939L503.463 127.195C502.15 131.636 498.124 134.859 493.311 134.859C488.497 134.859 484.471 131.636 483.158 127.195L482.721 99.0213V87.656C466.661 92.6202 455.02 107.513 455.02 125.105C455.02 132.159 456.902 138.734 460.14 144.482H473.312C468.586 139.387 465.698 132.594 465.698 125.105C465.698 116.483 469.549 108.775 475.588 103.55L475.85 127.238C477.295 135.686 484.559 142.087 493.267 142.087C502.019 142.087 509.283 135.686 510.684 127.238L510.946 101.895C518.21 107.077 522.98 115.525 522.98 125.105C522.98 132.594 520.092 139.387 515.366 144.482H528.538C531.776 138.778 533.658 132.159 533.658 125.105C533.745 106.772 521.011 91.3574 503.901 87.09Z" fill="#D2AD52"/>
<path fill-rule="evenodd" clip-rule="evenodd" d="M36.6712 120.794C27.7441 120.794 20.4798 113.565 20.4798 104.682C20.4798 95.799 27.7441 88.5705 36.6712 88.5705C45.5983 88.5705 52.8625 95.799 52.8625 104.682C52.8625 113.565 45.5983 120.794 36.6712 120.794ZM36.6712 68.1914C30.8511 68.1914 25.3372 69.5413 20.4798 71.9799V0H0V104.682C0 124.8 16.4539 141.173 36.6712 141.173C56.8885 141.173 73.3424 124.8 73.3424 104.682C73.3424 84.5644 56.8885 68.1914 36.6712 68.1914Z" fill="#D2AD52"/>
<path fill-rule="evenodd" clip-rule="evenodd" d="M176.704 104.682C176.704 95.799 183.969 88.5705 192.896 88.5705C201.823 88.5705 209.087 95.799 209.087 104.682C209.087 113.565 201.823 120.794 192.896 120.794C183.969 120.794 176.704 113.565 176.704 104.682ZM99.2485 104.682C99.2485 95.799 106.513 88.5705 115.44 88.5705C119.86 88.5705 123.886 90.3558 126.774 93.2298L103.887 115.96C101.043 113.043 99.2485 109.08 99.2485 104.682ZM221.953 126.934C226.723 120.75 229.611 113.043 229.611 104.639C229.611 84.5208 213.157 68.1479 192.94 68.1479C172.722 68.1479 156.268 84.5208 156.268 104.639C156.268 111.519 158.194 117.92 161.52 123.406H120.516L150.404 93.6653V93.6217C145.678 78.86 131.806 68.1479 115.44 68.1479C95.2225 68.1479 78.7687 84.5208 78.7687 104.639C78.7687 124.495 94.7412 140.65 114.608 141.129H197.097C215.257 141.129 230.005 155.804 230.005 173.875C230.005 191.946 215.257 206.621 197.097 206.621V227C226.547 227 250.484 203.181 250.484 173.875C250.441 153.583 238.888 135.86 221.953 126.934Z" fill="#D2AD52"/>
<path fill-rule="evenodd" clip-rule="evenodd" d="M325.709 112.215V72.4588H306.323L268.032 112.215V72.4588H231.405V91.6622H248.778V141.173H267.814L306.454 101.024V141.173H325.49L364.13 101.024V141.173H383.385V72.4588H363.999L325.709 112.215Z" fill="#D2AD52"/>
<path d="M268.076 0H248.078V19.9001H268.076V0Z" fill="#D2AD52"/>
</svg>
