<svg width="349" height="312" viewBox="0 0 349 312" fill="none" xmlns="http://www.w3.org/2000/svg">
<path fill-rule="evenodd" clip-rule="evenodd" d="M179.457 310.906C180.015 310.666 180.556 310.384 181.075 310.064C210.164 292.949 251.533 264.463 285.844 229.115C319.916 194.014 349 150.112 349 102.438C349 70.5722 339.335 45.9251 323.302 28.6534C307.364 11.485 286.082 2.62811 264.606 0.502743C231.419 -2.78163 194.635 10.0984 174.5 37.0278C154.365 10.0984 117.581 -2.78163 84.394 0.502743C62.9182 2.62811 41.6361 11.485 25.6983 28.6534C9.66461 45.9251 0 70.5722 0 102.438C0 150.112 29.0839 194.014 63.1557 229.115C97.4668 264.463 138.836 292.949 167.925 310.064C168.445 310.385 168.985 310.666 169.543 310.906C171.144 311.6 172.831 311.933 174.5 311.932C176.169 311.933 177.856 311.6 179.457 310.906ZM25 102.438C25 75.8031 32.9604 57.5763 44.0204 45.6622C55.1764 33.6449 70.4569 27.0042 86.8561 25.3812C120.684 22.0334 154.051 39.887 162.447 67.7577C162.608 68.3399 162.81 68.9085 163.052 69.4592C163.622 70.762 164.396 71.9281 165.325 72.93C166.639 74.3522 168.299 75.4854 170.225 76.1843C171.579 76.6782 173.024 76.9412 174.5 76.9407C175.976 76.9412 177.421 76.6781 178.775 76.1843C180.702 75.4853 182.361 74.3522 183.675 72.93C184.604 71.9281 185.378 70.762 185.948 69.4591C186.19 68.9085 186.392 68.3399 186.553 67.7577C194.949 39.887 228.316 22.0334 262.144 25.3812C278.543 27.0042 293.824 33.6449 304.98 45.6622C316.04 57.5763 324 75.8031 324 102.438C324 140.189 300.584 178.037 267.906 211.702C237.94 242.573 201.835 268.222 174.5 284.863C147.165 268.222 111.06 242.573 81.0944 211.702C48.4161 178.037 25 140.189 25 102.438Z" fill="#191919"/>
</svg>
