<svg width="331" height="313" viewBox="0 0 331 313" fill="none" xmlns="http://www.w3.org/2000/svg">
<path fill-rule="evenodd" clip-rule="evenodd" d="M165.5 0C111.1 0 67 44.1 67 98.5C67 132.816 84.5484 163.034 111.161 180.668C57.8414 198.382 16.1591 241.685 0.492248 296.038C-1.41983 302.671 2.40763 309.599 9.04111 311.511C15.6746 313.423 22.6021 309.596 24.5142 302.962C42.1695 241.711 98.4275 197 165.003 197C231.579 197 287.837 241.711 305.492 302.962C307.404 309.596 314.332 313.423 320.965 311.511C327.599 309.599 331.426 302.671 329.514 296.038C313.912 241.91 272.509 198.74 219.505 180.889C246.305 163.286 264 132.96 264 98.5C264 44.1 219.9 0 165.5 0ZM92 98.5C92 57.9071 124.907 25 165.5 25C206.093 25 239 57.9071 239 98.5C239 139.093 206.093 172 165.5 172C124.907 172 92 139.093 92 98.5Z" fill="#191919"/>
</svg>
